<svg width="1704" height="305" viewBox="0 0 1704 305" fill="none" xmlns="http://www.w3.org/2000/svg">
<path d="M1829.35 304.999C1838.38 292.399 1843.05 277.215 1842.64 261.744C1842.23 246.273 1836.76 231.355 1827.07 219.247C1817.37 207.14 1803.98 198.5 1788.9 194.635C1773.83 190.769 1757.9 191.889 1743.53 197.824C1732.27 185.711 1716.72 178.424 1700.16 177.502C1704.3 154.971 1700.19 131.709 1688.56 111.936C1676.93 92.1638 1658.56 77.191 1636.77 69.7345C1614.99 62.2779 1591.24 62.8316 1569.84 71.2952C1548.43 79.7587 1530.79 95.5713 1520.1 115.864C1510.6 108.471 1499.51 103.355 1487.7 100.915C1475.89 98.4752 1463.67 98.7767 1451.99 101.796C1440.32 104.815 1429.5 110.471 1420.38 118.323C1411.25 126.176 1404.08 136.014 1399.4 147.073C1389.32 148.328 1379.69 151.977 1371.33 157.713C1369.34 141.611 1361.49 126.788 1349.28 116.037C1337.06 105.285 1321.31 99.3458 1304.99 99.3375C1301 99.3534 1297.03 99.7332 1293.11 100.472C1287.84 85.1652 1277.39 72.15 1263.55 63.6462C1249.71 55.1424 1233.33 51.6766 1217.2 53.8399C1201.07 56.0031 1186.2 63.6615 1175.12 75.5089C1164.04 87.3564 1157.43 102.659 1156.43 118.808C1149.1 111.516 1140.17 106.021 1130.33 102.755C1120.5 99.4893 1110.03 98.5432 1099.77 99.9915C1089.5 101.44 1079.72 105.243 1071.18 111.1C1062.65 116.957 1055.61 124.707 1050.6 133.738C1040.93 130.032 1030.49 128.718 1020.19 129.91C1009.89 131.102 1000.03 134.765 991.467 140.583C986.798 120.187 975.418 101.922 959.131 88.6813C942.844 75.4409 922.579 67.9816 901.547 67.4849C880.515 66.9883 859.918 73.4827 843.016 85.9394C826.115 98.3962 813.877 116.103 808.239 136.256C803.372 133.805 798.204 131.993 792.866 130.866C776.502 117.209 756.977 107.815 736.052 103.529C715.126 99.2433 693.457 100.201 672.996 106.315C652.535 112.429 633.926 123.508 618.843 138.554C603.761 153.6 592.68 172.14 586.598 192.504C583.943 196.529 581.697 200.806 579.892 205.271C579.892 204.101 580.071 202.931 580.071 201.725C580.075 190.857 576.851 180.229 570.804 171.175C564.758 162.122 556.157 155.045 546.08 150.833C536.004 146.621 524.901 145.461 514.165 147.499C503.428 149.537 493.536 154.682 485.728 162.288C489.151 145.561 487.042 128.181 479.715 112.744C472.389 97.3069 460.237 84.6395 445.075 76.6329C429.913 68.6263 412.554 65.71 395.588 68.319C378.622 70.9281 362.96 78.9227 350.939 91.1096C353.853 83.5344 355.352 75.4939 355.361 67.3835C355.361 49.5123 348.222 32.373 335.512 19.7362C322.803 7.09932 305.566 0 287.592 0C269.619 0 252.381 7.09932 239.672 19.7362C226.963 32.373 219.823 49.5123 219.823 67.3835C208.37 59.2148 194.872 54.3458 180.816 53.3124C166.759 52.279 152.688 55.1212 140.151 61.5263C127.615 67.9313 117.098 77.6509 109.758 89.6156C102.419 101.58 98.5406 115.326 98.5511 129.341C98.5511 131.291 98.5511 133.207 98.8365 135.086C87.1088 136.301 75.797 140.081 65.7125 146.157C55.628 152.232 47.0209 160.451 40.5087 170.225C33.9965 179.999 29.7407 191.084 28.0467 202.687C26.3526 214.289 27.2623 226.12 30.7104 237.332C18.3977 243.058 8.75133 253.247 3.7453 265.813C-1.26073 278.378 -1.24797 292.371 3.78099 304.928L1829.35 304.999Z" fill="#F19770"/>
</svg>
