<svg width="299" height="79" viewBox="0 0 299 79" fill="none" xmlns="http://www.w3.org/2000/svg">
<path fill-rule="evenodd" clip-rule="evenodd" d="M0 7.53246C4.20067 5.70194 8.5312 4.1852 12.956 2.9947V41.8864H56.8617V76.9448C52.59 77.839 48.2606 78.4308 43.9057 78.7158V54.8463H0" fill="#7166EF"/>
<path fill-rule="evenodd" clip-rule="evenodd" d="M74.8514 71.2108C70.654 73.047 66.326 74.569 61.9032 75.7643V36.853H17.9937V1.77491C22.2652 0.879347 26.5946 0.286218 30.9497 -5.24521e-05V23.8812H74.8514" fill="#7166EF"/>
<path fill-rule="evenodd" clip-rule="evenodd" d="M0 59.8804V71.211C4.20023 73.0469 8.53077 74.5689 12.956 75.7645V59.8804H0Z" fill="#7166EF"/>
<path fill-rule="evenodd" clip-rule="evenodd" d="M56.8618 18.8633V1.77491C52.5902 0.879348 48.2608 0.286218 43.9058 -5.24521e-05V18.8476L56.8618 18.8633Z" fill="#7166EF"/>
<path fill-rule="evenodd" clip-rule="evenodd" d="M17.9937 59.8804V76.9452C22.2652 77.8407 26.5946 78.4339 30.9497 78.7201V59.8804H17.9937Z" fill="#7166EF"/>
<path fill-rule="evenodd" clip-rule="evenodd" d="M74.8512 18.8631V7.53246C70.6534 5.7017 66.3254 4.18495 61.9031 2.9947V18.8631H74.8512Z" fill="#7166EF"/>
<path d="M120.194 27.5124V51.2048H114.711V41.4917H103.947V51.2048H98.4651V27.5124H103.947V36.8634H114.711V27.5124H120.194Z" fill="#7166EF"/>
<path d="M130.647 50.0199C128.728 49.0117 127.124 47.4948 126.01 45.6356C124.912 43.7258 124.334 41.5613 124.334 39.3583C124.334 37.1553 124.912 34.9909 126.01 33.081C127.124 31.2218 128.728 29.705 130.647 28.6968C132.705 27.6514 134.981 27.1066 137.29 27.1066C139.599 27.1066 141.875 27.6514 143.933 28.6968C145.865 29.7281 147.48 31.2647 148.606 33.1425C149.732 35.0203 150.327 37.1688 150.327 39.3583C150.327 41.5479 149.732 43.6963 148.606 45.5741C147.48 47.4519 145.865 48.9886 143.933 50.0199C141.875 51.0652 139.599 51.6101 137.29 51.6101C134.981 51.6101 132.705 51.0652 130.647 50.0199V50.0199ZM141.088 45.9741C142.207 45.3426 143.128 44.41 143.744 43.2821C144.378 42.0705 144.709 40.7236 144.709 39.3564C144.709 37.9891 144.378 36.6422 143.744 35.4306C143.126 34.3046 142.206 33.3737 141.088 32.7426C139.925 32.1074 138.622 31.7744 137.298 31.7744C135.973 31.7744 134.67 32.1074 133.508 32.7426C132.389 33.3737 131.469 34.3046 130.851 35.4306C130.218 36.6422 129.887 37.9891 129.887 39.3564C129.887 40.7236 130.218 42.0705 130.851 43.2821C131.468 44.41 132.388 45.3426 133.508 45.9741C134.671 46.6069 135.974 46.9383 137.298 46.9383C138.622 46.9383 139.925 46.6069 141.088 45.9741V45.9741Z" fill="#7166EF"/>
<path d="M156.732 50.8504C155.217 50.4604 153.788 49.7932 152.517 48.8826L154.378 44.7345C155.481 45.5227 156.704 46.1287 157.999 46.5291C159.353 46.9739 160.769 47.2024 162.195 47.206C163.769 47.206 164.902 46.9738 165.65 46.5134C165.985 46.3353 166.266 46.0695 166.462 45.7445C166.658 45.4194 166.763 45.0472 166.764 44.6676C166.769 44.3988 166.712 44.1324 166.598 43.8889C166.484 43.6454 166.316 43.4311 166.107 43.2626C165.604 42.8596 165.03 42.5551 164.414 42.3652C163.727 42.1396 162.795 41.8917 161.62 41.6214C160.118 41.2818 158.638 40.852 157.188 40.3345C156.042 39.9093 155.022 39.1997 154.225 38.2722C153.401 37.3224 152.989 36.0578 152.989 34.4783C152.977 33.1479 153.366 31.8447 154.107 30.7394C154.946 29.5439 156.117 28.6204 157.476 28.0829C159.226 27.3827 161.101 27.0491 162.986 27.1029C164.48 27.1015 165.97 27.2826 167.421 27.6421C168.759 27.9647 170.038 28.496 171.211 29.2164L169.519 33.3802C167.532 32.1941 165.268 31.552 162.954 31.5187C161.419 31.5187 160.284 31.7666 159.55 32.2625C159.211 32.4666 158.932 32.7555 158.739 33.1006C158.547 33.4457 158.448 33.8351 158.452 34.2303C158.45 34.626 158.571 35.0124 158.798 35.3365C159.025 35.6607 159.347 35.9066 159.719 36.0407C160.968 36.5652 162.267 36.9608 163.596 37.2214C165.099 37.5512 166.581 37.9704 168.035 38.4768C169.174 38.8986 170.191 39.5963 170.995 40.5076C171.816 41.4338 172.228 42.6866 172.23 44.2661C172.24 45.5886 171.844 46.8824 171.097 47.9735C170.238 49.172 169.052 50.0972 167.681 50.6379C165.929 51.3345 164.055 51.6679 162.171 51.6178C160.331 51.6217 158.499 51.3633 156.732 50.8504Z" fill="#7166EF"/>
<path d="M184.604 41.8971L181.416 45.2148V51.2048H175.973V27.5124H181.416V38.5793L191.908 27.5124H198.001L188.185 38.0717L198.575 51.2048H192.184L184.604 41.8971Z" fill="#7166EF"/>
<path d="M215.573 46.1278H204.573L202.472 51.2048H196.855L207.415 27.5124H212.83L223.425 51.2048H217.671L215.573 46.1278ZM213.845 41.9797L210.087 32.9081L206.332 41.9797H213.845Z" fill="#7166EF"/>
<path d="M225.888 27.5121H236.652C239.011 27.4672 241.348 27.9739 243.477 28.9919C245.376 29.9046 246.974 31.3428 248.081 33.1361C249.157 35.0355 249.723 37.1812 249.723 39.3642C249.723 41.5471 249.157 43.6928 248.081 45.5923C246.975 47.387 245.377 48.8267 243.477 49.7404C241.349 50.7551 239.013 51.2591 236.656 51.2123H225.888V27.5121ZM236.385 46.7021C238.746 46.7021 240.636 46.0462 242.056 44.7343C243.475 43.4224 244.18 41.6344 244.169 39.3701C244.169 37.1137 243.465 35.3256 242.056 34.0058C240.647 32.6861 238.757 32.0302 236.385 32.038H231.398V46.7021H236.385Z" fill="#7166EF"/>
<path d="M272.195 46.8048V51.2048H253.851V27.5124H271.754V31.9124H259.302V37.0563H270.298V41.3225H259.302V46.8048H272.195Z" fill="#7166EF"/>
<path d="M299 27.5124L288.768 51.2048H283.348L273.116 27.5124H279.019L286.229 44.4355L293.542 27.5124H299Z" fill="#7166EF"/>
</svg>
