<svg width="22" height="20" viewBox="0 0 22 20" fill="none" xmlns="http://www.w3.org/2000/svg">
<g clip-path="url(#clip0_50:57)">
<path d="M20.6359 10C20.6359 4.47715 16.1588 0 10.6359 0C5.11309 0 0.635941 4.47715 0.635941 10C0.635941 15.5228 5.11309 20 10.6359 20C16.1588 20 20.6359 15.5228 20.6359 10Z" fill="#252525"/>
<path fill-rule="evenodd" clip-rule="evenodd" d="M13.7286 19.5119C12.7546 19.8287 11.7151 20 10.6359 20C9.55597 20 8.51585 19.8285 7.54126 19.5113C7.99147 19.5653 8.1578 19.2722 8.1578 19.0191C8.1578 18.9089 8.15593 18.7146 8.15339 18.4546C8.15051 18.1538 8.14672 17.7652 8.14406 17.3173C5.36218 17.922 4.7753 15.9757 4.7753 15.9757C4.32093 14.82 3.66531 14.5122 3.66531 14.5122C2.75718 13.8912 3.73406 13.9037 3.73406 13.9037C4.73718 13.9744 5.26531 14.9351 5.26531 14.9351C6.1578 16.4643 7.60593 16.0228 8.17593 15.7663C8.26656 15.1196 8.52531 14.6786 8.81093 14.4284C6.59031 14.1758 4.25593 13.3177 4.25593 9.48319C4.25593 8.39053 4.6453 7.49748 5.2853 6.79757C5.18218 6.54436 4.83905 5.52736 5.3828 4.14952C5.3828 4.14952 6.22281 3.88055 8.1328 5.17523C8.93093 4.95315 9.78593 4.84257 10.6366 4.83807C11.4859 4.8424 12.3416 4.95315 13.1403 5.17523C15.0491 3.88055 15.8872 4.14952 15.8872 4.14952C16.4328 5.52736 16.0897 6.54436 15.9866 6.79757C16.6278 7.49748 17.0147 8.39053 17.0147 9.48319C17.0147 13.327 14.6766 14.1734 12.4491 14.421C12.8078 14.7299 13.1278 15.3403 13.1278 16.2741C13.1278 17.1687 13.1222 17.9474 13.1185 18.4635C13.1167 18.7192 13.1153 18.9104 13.1153 19.0192C13.1153 19.2735 13.2776 19.5672 13.7286 19.5119Z" fill="white"/>
</g>
<defs>
<clipPath id="clip0_50:57">
<rect width="20.5" height="20" fill="white" transform="translate(0.552628)"/>
</clipPath>
</defs>
</svg>
