<svg width="22" height="20" viewBox="0 0 22 20" fill="none" xmlns="http://www.w3.org/2000/svg">
<g clip-path="url(#clip0_50:55)">
<path d="M5.49139 6.59753V19.7166H1.12297V6.59753H5.49139ZM5.76913 2.54733C5.76994 2.57081 5.77075 2.59834 5.77075 2.62668C5.77075 3.23316 5.51326 3.7789 5.10192 4.16109L5.1003 4.1619C4.659 4.56514 4.06872 4.8121 3.42014 4.8121C3.38046 4.8121 3.33998 4.81129 3.3003 4.80967H3.30597H3.27925C3.24605 4.81129 3.20718 4.8121 3.16832 4.8121C2.5335 4.8121 1.95698 4.56433 1.52864 4.16109L1.52945 4.1619C1.12135 3.76676 0.868721 3.21453 0.868721 2.6032C0.868721 2.58376 0.868721 2.56433 0.869531 2.54409V2.54733C0.868721 2.53032 0.868721 2.51089 0.868721 2.49146C0.868721 1.87445 1.13107 1.31899 1.54969 0.929512L1.55131 0.928702C1.9918 0.527892 2.58046 0.281738 3.22581 0.281738C3.26305 0.281738 3.29949 0.282548 3.33674 0.284167H3.33188C3.3667 0.282548 3.40637 0.281738 3.44767 0.281738C4.0833 0.281738 4.66224 0.527082 5.09463 0.927892L5.09301 0.926273C5.51002 1.3287 5.76913 1.89226 5.76913 2.51656V2.55056V2.54894V2.54733ZM21.2039 12.1991V19.7166H16.8493V12.7004C16.8533 12.6364 16.855 12.5619 16.855 12.4874C16.855 11.7619 16.6533 11.0842 16.3027 10.506L16.3124 10.523C15.9667 10.0404 15.408 9.73032 14.7772 9.73032C14.7286 9.73032 14.6801 9.73194 14.6315 9.73599H14.638C14.6161 9.73518 14.591 9.73437 14.5659 9.73437C14.0639 9.73437 13.6023 9.90684 13.2371 10.1959L13.242 10.1927C12.8752 10.4898 12.5878 10.8696 12.4064 11.306L12.3999 11.3247C12.306 11.6121 12.2525 11.9425 12.2525 12.2858C12.2525 12.3247 12.2533 12.3635 12.255 12.4024V12.3967V19.7182H7.9003C7.91811 16.197 7.92702 13.3419 7.92702 11.153C7.92702 8.96406 7.9227 7.65799 7.91407 7.23478L7.90111 6.59915H12.2558V8.50522H12.229C12.4023 8.22587 12.5813 7.98376 12.778 7.75704L12.7716 7.76433C12.9991 7.51413 13.2436 7.28822 13.5068 7.08579L13.5197 7.07607C13.8469 6.82425 14.2307 6.62668 14.6469 6.50603L14.6712 6.50036C15.1068 6.37 15.608 6.29469 16.1262 6.29469H16.1902H16.1869C16.2444 6.29226 16.3116 6.29065 16.3788 6.29065C17.74 6.29065 18.9659 6.86878 19.825 7.79348L19.8274 7.79672C20.7462 8.79861 21.2056 10.2658 21.2056 12.1983L21.2039 12.1991Z" fill="#252525"/>
</g>
<defs>
<clipPath id="clip0_50:55">
<rect width="21.0526" height="20" fill="white" transform="translate(0.5)"/>
</clipPath>
</defs>
</svg>
