<svg width="29" height="20" viewBox="0 0 29 20" fill="none" xmlns="http://www.w3.org/2000/svg">
<g clip-path="url(#clip0_50:62)">
<path d="M25.9053 19.9999H2.57211C1.65212 19.9999 0.905457 19.2533 0.905457 18.3333V1.66672C0.905457 0.746722 1.65212 6.10352e-05 2.57211 6.10352e-05H25.9053C26.8253 6.10352e-05 27.5719 0.746722 27.5719 1.66672V18.3333C27.5719 19.2533 26.8253 19.9999 25.9053 19.9999Z" fill="#EAEAEA"/>
<path d="M4.23877 19.9999H2.57211C1.65212 19.9999 0.905457 19.2533 0.905457 18.3333V1.66672C0.905457 0.746722 1.65212 6.10352e-05 2.57211 6.10352e-05C3.4921 6.10352e-05 4.23877 0.746722 4.23877 1.66672V19.9999Z" fill="#252525"/>
<path d="M24.239 20H25.9056C26.8256 20 27.5723 19.2533 27.5723 18.3333V1.66678C27.5723 0.746783 26.8256 0.00012207 25.9056 0.00012207C24.9856 0.00012207 24.239 0.746783 24.239 1.66678V20Z" fill="#252525"/>
<path d="M26.8601 3.03345C27.6145 2.50679 27.7989 1.4668 27.2723 0.712357C26.7456 -0.0420825 25.7056 -0.226526 24.9512 0.300137L14.2401 8.09786H14.239H14.2379L3.52688 0.300137C2.77244 -0.226526 1.73356 -0.0420825 1.20579 0.712357C0.678015 1.4668 0.863569 2.50679 1.61801 3.03345L1.57356 3.00123L14.239 12.2223L26.8601 3.03345ZM26.9045 3.00123L14.239 12.2223L26.9045 3.00123Z" fill="#252525"/>
<path d="M25.9056 0.00012207C25.5512 0.00012207 25.2212 0.111232 24.9512 0.30012L14.2402 8.09784H14.239H14.2379L3.5269 0.30012C3.24801 0.104566 2.91468 0.00012207 2.57246 0.00012207H25.9056Z" fill="#EFEFEF"/>
<path d="M4.24022 5.66007L1.43135 2.87787L1.43024 2.88009C1.48913 2.93565 1.55135 2.98676 1.61801 3.03342L1.57357 3.0012L4.24022 4.9423V5.68007V5.66007Z" fill="#252525"/>
<path d="M12.3879 13.6622L4.23911 20L4.24022 5.59119L12.3868 13.66L12.3879 13.6622Z" fill="#E3E3E3"/>
<path d="M12.3879 13.6623L14.239 12.2223L4.2402 4.94232V5.5901L12.3868 13.6589L12.3879 13.6623Z" fill="url(#paint0_linear_50:62)"/>
<path d="M18.7168 20H24.239V4.94232L14.239 12.2223L12.3868 13.6589L18.7168 20Z" fill="url(#paint1_linear_50:62)"/>
</g>
<defs>
<linearGradient id="paint0_linear_50:62" x1="4.24748" y1="9.36642" x2="14.2417" y2="9.36642" gradientUnits="userSpaceOnUse">
<stop stop-color="#C8C8C8"/>
<stop offset="1" stop-color="#CDCDCD"/>
</linearGradient>
<linearGradient id="paint1_linear_50:62" x1="12.413" y1="12.5135" x2="24.236" y2="12.5135" gradientUnits="userSpaceOnUse">
<stop stop-color="#D9D9D9"/>
<stop offset="1" stop-color="#E2E2E2"/>
</linearGradient>
<clipPath id="clip0_50:62">
<rect width="27.5" height="20" fill="white" transform="translate(0.552628)"/>
</clipPath>
</defs>
</svg>
