<?xml version="1.0" encoding="UTF-8"?>
<!DOCTYPE svg PUBLIC "-//W3C//DTD SVG 1.1//EN" "http://www.w3.org/Graphics/SVG/1.1/DTD/svg11.dtd">
<!-- Creator: CorelDRAW 2021 (64-Bit) -->
<svg xmlns="http://www.w3.org/2000/svg" xml:space="preserve" width="6.0138in" height="3.01162in" version="1.1" style="shape-rendering:geometricPrecision; text-rendering:geometricPrecision; image-rendering:optimizeQuality; fill-rule:evenodd; clip-rule:evenodd"
viewBox="0 0 244.1 122.24"
 xmlns:xlink="http://www.w3.org/1999/xlink"
 xmlns:xodm="http://www.corel.com/coreldraw/odm/2003">
 <defs>
  <style type="text/css">
   <![CDATA[
    .fil0 {fill:#BA005D}
   ]]>
  </style>
 </defs>
 <g id="Layer_x0020_1">
  <metadata id="CorelCorpID_0Corel-Layer"/>
  <g id="_1646528756656">
   <path class="fil0" d="M37.84 63.04l0 -16.38 -21.11 0 0 37.74 0 0.1 0 2.24c0,7.89 -6.51,14.39 -14.39,14.39l-2.34 0 0 21.11 2.81 0c19.27,0 35.03,-15.76 35.03,-35.03l0 -2.71 29.71 0c9.5,0 18.15,-3.84 24.48,-10.03 6.33,6.2 14.97,10.03 24.48,10.03l5.62 0 0.06 -0 32.3 0c9.5,0 18.15,-3.84 24.48,-10.03 4.41,4.32 9.96,7.5 16.13,9.02 0.01,0 0.02,0 0.02,0.01 1.45,0.36 2.85,0.02 3.98,-0.95 4.51,-3.89 8.49,-8.77 11.43,-14.68 0.23,-0.45 0.17,-0.97 -0.14,-1.37 -0.32,-0.4 -0.8,-0.57 -1.3,-0.45 -4.51,1.06 -10.69,-1.14 -16.41,-8.3 -5.19,-6.49 -6.2,-14.99 -3.39,-22.22 2.36,-0.36 4.75,-0.33 7.09,0.05 -0.29,-2.74 0.47,-5.48 2.07,-7.67 2.69,0.3 5.22,1.58 7.04,3.64 1.28,-1.97 2.88,-3.74 4.73,-5.24 7.23,2.81 12.82,9.28 14.1,17.5 1.42,9.12 -1.16,15.18 -5.04,17.76 -0.94,0.62 -1.54,1.46 -1.83,2.55 -1.77,6.53 -4.84,12.72 -8.91,18.34 -0.29,0.4 -0.33,0.9 -0.1,1.34 0.23,0.44 0.66,0.7 1.16,0.69 19.02,-0.29 34.5,-15.94 34.5,-35.03l0 -5.62c0,-19.52 -16.02,-35.03 -35.03,-35.03l-5.62 0c-19.27,0 -35.03,15.76 -35.03,35.03l0 2.81 0 2.34c0,7.8 -6.39,14.26 -14.16,14.39 1.86,-4.27 2.9,-8.98 2.9,-13.92l0 -5.62c0,-19.27 -15.76,-35.03 -35.03,-35.03l-5.62 0c-4,0 -7.86,0.68 -11.45,1.93 -1.81,0.63 -2.8,2.59 -2.22,4.42 0.99,3.16 0.42,6.62 -0.99,9.68 -2.4,5.19 -7.14,9.41 -11.85,12.49 -1.97,1.29 -4.06,2.34 -6.22,3.15 -1.41,0.53 -2.31,1.82 -2.31,3.33 0,0.01 0,0.02 0,0.03l0 2.81 0 2.34c0,7.81 -6.38,14.27 -14.16,14.39 1.86,-4.27 2.9,-8.98 2.9,-13.92l0 -3.97c0,-1.74 -1.22,-3.2 -2.93,-3.5 -1.24,-0.22 -13.11,-2.83 -13.59,-2.98 -1.11,-0.34 -2.21,-0.14 -3.15,0.55 -0.93,0.69 -1.44,1.69 -1.44,2.85l0 6.57c0,6.81 -4.85,12.59 -11.26,14.04zm64.74 -14.04l0 -2.34 0 -2.34c0,-7.89 6.51,-14.39 14.39,-14.39l4.68 0c7.89,0 14.39,6.51 14.39,14.39l0 4.68c0,7.89 -6.51,14.39 -14.39,14.39l-1.57 0 -3.11 0c-7.89,0 -14.39,-6.5 -14.39,-14.39zm-20.62 57.2c-4.47,2.84 -10.54,2.05 -16.26,-1.5 -0.7,-6.68 1.22,-12.46 5.73,-15.23 13,-7.98 23.41,8.54 10.53,16.73zm-5.38 -1.64c-2.27,1.44 -5.35,1.04 -8.26,-0.76 -0.36,-3.39 0.62,-6.33 2.91,-7.74 6.6,-4.05 11.89,4.34 5.35,8.5zm-31.09 -79.27c2.86,4.41 7.53,6.94 12.4,7.25 1.64,-4.59 1.17,-9.88 -1.74,-14.26 -8.38,-12.61 -18.92,-5.7 -10.67,7zm-6.55 -1.03c5.08,7.82 13.36,12.31 22,12.86 2.91,-8.15 2.08,-17.52 -3.08,-25.28 -14.86,-22.37 -33.56,-10.11 -18.92,12.42z"/>
   <path class="fil0" d="M47.22 106.26c4.47,2.84 10.54,2.05 16.26,-1.5 0.7,-6.68 -1.22,-12.46 -5.73,-15.23 -13,-7.98 -23.41,8.54 -10.53,16.73zm34.67 -73.29c-4.4,2.88 -9.69,3.31 -14.28,1.64 0.35,-4.87 2.91,-9.51 7.34,-12.35 12.75,-8.16 19.62,2.41 6.94,10.71zm6.41 1.7c-7.8,5.11 -17.19,5.88 -25.32,2.9 0.62,-8.63 5.16,-16.87 13.01,-21.9 22.62,-14.48 34.79,4.27 12.31,18.99zm-70.77 4.24c3.03,4.34 8.94,5.94 15.59,4.87 3.22,-5.89 3.67,-11.97 0.57,-16.26 -8.93,-12.37 -24.89,-1.13 -16.16,11.39zm5.59 0.56c1.54,2.2 4.54,3.02 7.92,2.48 1.63,-2.99 1.86,-6.08 0.29,-8.26 -4.54,-6.28 -12.65,-0.57 -8.21,5.79zm29.47 65.16c2.27,1.44 5.35,1.04 8.26,-0.76 0.36,-3.39 -0.62,-6.33 -2.91,-7.74 -6.6,-4.06 -11.89,4.34 -5.35,8.5z"/>
  </g>
 </g>
</svg>
