<svg width="21" height="20" viewBox="0 0 21 20" fill="none" xmlns="http://www.w3.org/2000/svg">
<g clip-path="url(#clip0_50:53)">
<path d="M15.6925 3.46C15.4552 3.46 15.2232 3.53038 15.0259 3.66224C14.8285 3.79409 14.6747 3.98151 14.5839 4.20078C14.4931 4.42005 14.4693 4.66133 14.5156 4.89411C14.5619 5.12689 14.6762 5.34071 14.844 5.50853C15.0118 5.67635 15.2257 5.79064 15.4584 5.83694C15.6912 5.88324 15.9325 5.85948 16.1518 5.76866C16.371 5.67783 16.5584 5.52402 16.6903 5.32668C16.8222 5.12935 16.8925 4.89734 16.8925 4.66C16.8925 4.34174 16.7661 4.03652 16.5411 3.81147C16.316 3.58643 16.0108 3.46 15.6925 3.46ZM20.2925 5.88C20.2731 5.0503 20.1177 4.2294 19.8325 3.45C19.5783 2.78313 19.1825 2.17928 18.6725 1.68C18.1774 1.16743 17.5721 0.774176 16.9025 0.53C16.1252 0.236161 15.3034 0.07721 14.4725 0.0599999C13.4125 -5.58794e-08 13.0725 0 10.3525 0C7.63254 0 7.29254 -5.58794e-08 6.23254 0.0599999C5.40169 0.07721 4.57988 0.236161 3.80254 0.53C3.13422 0.776649 2.52947 1.16956 2.03254 1.68C1.51997 2.17518 1.12672 2.78044 0.882539 3.45C0.5887 4.22734 0.429749 5.04915 0.412539 5.88C0.352539 6.94 0.352539 7.28 0.352539 10C0.352539 12.72 0.352539 13.06 0.412539 14.12C0.429749 14.9508 0.5887 15.7727 0.882539 16.55C1.12672 17.2196 1.51997 17.8248 2.03254 18.32C2.52947 18.8304 3.13422 19.2234 3.80254 19.47C4.57988 19.7638 5.40169 19.9228 6.23254 19.94C7.29254 20 7.63254 20 10.3525 20C13.0725 20 13.4125 20 14.4725 19.94C15.3034 19.9228 16.1252 19.7638 16.9025 19.47C17.5721 19.2258 18.1774 18.8326 18.6725 18.32C19.1848 17.8226 19.5809 17.2182 19.8325 16.55C20.1177 15.7706 20.2731 14.9497 20.2925 14.12C20.2925 13.06 20.3525 12.72 20.3525 10C20.3525 7.28 20.3525 6.94 20.2925 5.88ZM18.4925 14C18.4853 14.6348 18.3703 15.2637 18.1525 15.86C17.9929 16.2952 17.7364 16.6884 17.4025 17.01C17.0782 17.3405 16.6858 17.5964 16.2525 17.76C15.6562 17.9778 15.0273 18.0927 14.3925 18.1C13.3925 18.15 13.0225 18.16 10.3925 18.16C7.76254 18.16 7.39254 18.16 6.39254 18.1C5.73343 18.1123 5.07713 18.0109 4.45254 17.8C4.03832 17.6281 3.66389 17.3728 3.35254 17.05C3.02063 16.7287 2.76738 16.3352 2.61254 15.9C2.3684 15.2952 2.23298 14.6519 2.21254 14C2.21254 13 2.15254 12.63 2.15254 10C2.15254 7.37 2.15254 7 2.21254 6C2.21702 5.35106 2.33549 4.70795 2.56254 4.1C2.73859 3.67791 3.0088 3.30166 3.35254 3C3.65635 2.65617 4.03183 2.3831 4.45254 2.2C5.06209 1.98004 5.70454 1.86508 6.35254 1.86C7.35254 1.86 7.72254 1.8 10.3525 1.8C12.9825 1.8 13.3525 1.8 14.3525 1.86C14.9873 1.86728 15.6162 1.98225 16.2125 2.2C16.667 2.36865 17.0748 2.64285 17.4025 3C17.7302 3.30718 17.9863 3.68273 18.1525 4.1C18.3748 4.70893 18.4898 5.35178 18.4925 6C18.5425 7 18.5525 7.37 18.5525 10C18.5525 12.63 18.5425 13 18.4925 14ZM10.3525 4.87C9.33835 4.87198 8.3475 5.17453 7.50519 5.73942C6.66289 6.30431 6.00692 7.1062 5.62017 8.04375C5.23343 8.98131 5.13326 10.0125 5.33233 11.0069C5.5314 12.0014 6.02078 12.9145 6.73862 13.631C7.45645 14.3474 8.37055 14.835 9.3654 15.0321C10.3602 15.2293 11.3912 15.1271 12.328 14.7385C13.2648 14.35 14.0654 13.6924 14.6287 12.849C15.1919 12.0056 15.4925 11.0142 15.4925 10C15.4939 9.3251 15.3617 8.65661 15.1038 8.03296C14.8458 7.40931 14.4671 6.84281 13.9894 6.36605C13.5117 5.88929 12.9445 5.51168 12.3203 5.25493C11.6962 4.99818 11.0274 4.86736 10.3525 4.87ZM10.3525 13.33C9.69393 13.33 9.05011 13.1347 8.50249 12.7688C7.95487 12.4029 7.52806 11.8828 7.27602 11.2743C7.02398 10.6659 6.95804 9.99631 7.08652 9.35035C7.21501 8.70439 7.53216 8.11104 7.99787 7.64533C8.46358 7.17963 9.05693 6.86247 9.70289 6.73398C10.3488 6.6055 11.0184 6.67144 11.6269 6.92348C12.2354 7.17552 12.7554 7.60234 13.1213 8.14995C13.4872 8.69757 13.6825 9.34139 13.6825 10C13.6825 10.4373 13.5964 10.8703 13.4291 11.2743C13.2617 11.6784 13.0164 12.0454 12.7072 12.3547C12.398 12.6639 12.0309 12.9092 11.6269 13.0765C11.2229 13.2439 10.7898 13.33 10.3525 13.33Z" fill="#252525"/>
</g>
<defs>
<clipPath id="clip0_50:53">
<rect width="20.5" height="20" fill="white"/>
</clipPath>
</defs>
</svg>
